<?xml version="1.0" encoding="UTF-8"?>
<svg xmlns="http://www.w3.org/2000/svg" version="1.1" viewBox="0 0 280 120">
  <defs>
    <style>
      .cls-1 {
        fill: #111;
      }

      .cls-2 {
        fill: #ba00fb;
      }
    </style>
  </defs>
  <!-- Generator: Adobe Illustrator 28.6.0, SVG Export Plug-In . SVG Version: 1.2.0 Build 709)  -->
  <g>
    <g id="Layer_1">
      <g>
        <g id="Layer_1-2" data-name="Layer_1">
          <g id="Page-1">
            <g id="me3-home-copy">
              <g id="me3-logo">
                <path id="M" class="cls-1" d="M77.7,39h20.6l-15.1,42h-16.6l1.6-4.4,7.1-19.9-20.6,20.6h-4.9l-6-18.9-8.1,22.6h-16.6l-1.9-1.7.5-.3c1-.6,2-1.4,2.9-2.3h0l12-33.4-1.1-4.2h19.2l5.8,19.7,21-19.7h.2Z"/>
                <path id="E" class="cls-1" d="M112,72h45.3l-3.5,9h-61.6l-1.9-1.7.5-.3s1.2-.6,2.9-2.4h0l5.2-14.6,6.7-18.8-1.1-4.1h66.7l-13.8,11.8h0s-3.1-2.9-5.3-2.9h-31.6l-1.6,4.4-1.1,3.2h28.5l-6.2,8.9h-25.6l-2.7,7.6h.2Z"/>
                <path id="_x33_" class="cls-1" d="M183,81h56.8c5.7-.2,10.8-5,13.6-12.5l1.5-4-2.3-3.3,4.9-3.8,5-14.5c.3-.9.3-1.8,0-2.7h0c-.3-.7-.7-1.2-1.2-1.3h-61l-1.1,3.3-2.1,5.8h46.5s.2,0,.2,0v.5l-1,2.9-1.4,4h-23.1l-5.6,8.9h25.5l-2.7,7.5h-31.9c-2,0-5.3-3.8-5.3-3.8l-.4-.5"/>
              </g>
            </g>
          </g>
        </g>
        <g id="Layer_2">
          <polygon class="cls-2" points="147.2 107.9 207.1 55.4 167.6 55.4 147.2 107.9"/>
          <polygon class="cls-2" points="207 12.1 147.1 64.6 186.6 64.6 207 12.1"/>
        </g>
      </g>
    </g>
  </g>
</svg>